<svg aria-hidden="true" style="position: absolute; width: 0; height: 0; overflow: hidden;" version="1.1" xmlns="http://www.w3.org/2000/svg" xmlns:xlink="http://www.w3.org/1999/xlink">
  <defs>
    <symbol id="copy" viewBox="0 0 32 32">
      <path d="M28 10v18h-18v-18h18zM28 8h-18c-0.53 0-1.039 0.211-1.414 0.586s-0.586 0.884-0.586 1.414v18c0 0.53 0.211 1.039 0.586 1.414s0.884 0.586 1.414 0.586h18c0.53 0 1.039-0.211 1.414-0.586s0.586-0.884 0.586-1.414v-18c0-0.53-0.211-1.039-0.586-1.414s-0.884-0.586-1.414-0.586z"></path>
      <path d="M4 18h-2v-14c0-0.53 0.211-1.039 0.586-1.414s0.884-0.586 1.414-0.586h14v2h-14v14z"></path>
    </symbol>
    <symbol id="generate" viewBox="0 0 32 32">
      <path d="M12 10h-5.22c1.293-1.988 3.194-3.504 5.42-4.323s4.656-0.897 6.929-0.223c2.273 0.675 4.268 2.066 5.686 3.966s2.185 4.208 2.184 6.58h2c0.003-2.675-0.819-5.285-2.355-7.475s-3.708-3.854-6.223-4.763-5.249-1.022-7.83-0.321c-2.581 0.701-4.883 2.181-6.592 4.239v-3.68h-2v8h8v-2zM20 22h5.22c-1.293 1.988-3.194 3.504-5.42 4.323s-4.656 0.897-6.929 0.223c-2.273-0.675-4.268-2.066-5.686-3.966s-2.185-4.208-2.184-6.58h-2c-0.003 2.675 0.819 5.285 2.355 7.475s3.708 3.853 6.223 4.763c2.515 0.91 5.249 1.022 7.83 0.321s4.883-2.181 6.592-4.239v3.68h2v-8h-8v2z"></path>
    </symbol>
  </defs>
</svg>
