<svg width="48" height="48" viewBox="0 0 48 48" fill="none" xmlns="http://www.w3.org/2000/svg">
  <path d="M42 15V42H15V15H42ZM42 12H15C14.2044 12 13.4413 12.3161 12.8787 12.8787C12.3161 13.4413 12 14.2044 12 15V42C12 42.7956 12.3161 43.5587 12.8787 44.1213C13.4413 44.6839 14.2044 45 15 45H42C42.7956 45 43.5587 44.6839 44.1213 44.1213C44.6839 43.5587 45 42.7956 45 42V15C45 14.2044 44.6839 13.4413 44.1213 12.8787C43.5587 12.3161 42.7956 12 42 12Z" fill="#101010"/>
  <path d="M6 27H3V6C3 5.20435 3.31607 4.44129 3.87868 3.87868C4.44129 3.31607 5.20435 3 6 3H27V6H6V27Z" fill="#101010"/>
</svg>
